<svg xmlns="http://www.w3.org/2000/svg" width="1040" height="1040" viewBox="0 0 1040 1040" fill="none"><g clip-path="url(#clip0_2296_1626)"><rect x="20" y="20" width="1000" height="1000" rx="500" fill="#97ABE1"></rect><g filter="url(#filter0_d_2296_1626)"><path d="M378.318 103.423C378.318 103.423 295.318 29.4092 255.221 58.1761C216.794 85.7445 203.292 99.8157 241.068 128.272C284.845 161.25 378.318 103.423 378.318 103.423ZM378.318 103.423C378.318 103.423 310.103 138.368 312.738 179.401C315.009 214.792 371.611 243.223 394.471 208.356C419.346 170.417 378.318 103.423 378.318 103.423ZM378.318 103.423C378.318 103.423 476.097 129.292 506.508 95.6038C528.264 71.5021 532.944 35.0258 505.161 20.3133C464.184 -1.38883 378.318 103.423 378.318 103.423ZM378.318 103.423C378.318 103.423 453.169 30.68 428.084 -0.282402C404.102 -29.8847 344.543 -14.6553 329.405 20.3129C314.423 54.9173 378.318 103.423 378.318 103.423ZM378.318 103.423L305.476 102.574M378.318 103.423L360.958 179.401M378.318 103.423L457.435 87.406M378.318 103.423L378.842 58.2459M378.318 103.423C378.318 103.423 493.939 122.198 506.766 154.548C519.404 186.421 494.602 207.354 450.749 191.979C417.02 180.154 378.318 103.423 378.318 103.423ZM378.318 103.423L450.749 159.566" stroke="#6369A5" stroke-width="2"></path></g><path d="M623.811 280.52C623.811 280.52 622.893 366.633 660.235 388.254C698.442 410.378 741.899 393.021 739.804 348.906C737.375 297.782 623.811 280.52 623.811 280.52ZM623.811 280.52C623.811 280.52 721.884 285.724 749.775 259.36C773.833 236.623 761.146 182.209 722.477 186.575C680.402 191.325 623.811 280.52 623.811 280.52ZM623.811 280.52C623.811 280.52 575.374 212.951 533.052 211.188C502.77 209.928 490.339 263.144 505.376 279.426C534.75 311.234 623.811 280.52 623.811 280.52ZM623.811 280.52C623.811 280.52 519.081 317.638 511.808 354.128C504.854 389.012 533.981 404.134 568.116 394.159C601.896 384.288 623.811 280.52 623.811 280.52ZM623.811 280.52L666.642 333.367M623.811 280.52L688.717 247.683M623.811 280.52L550.045 256.642M623.811 280.52L582.707 330.706M623.811 280.52C623.811 280.52 573.083 201.365 593.88 164.961C612.694 132.025 662.475 121.717 677.586 162.398C689.211 193.684 623.811 280.52 623.811 280.52ZM623.811 280.52L620.929 194.991" stroke="#6369A5" stroke-width="2"></path><path d="M496.459 920.308C496.459 920.308 529.696 825.914 505.825 783.849C481.397 740.808 426.388 734.361 403.444 778.209C376.853 829.026 496.459 920.308 496.459 920.308ZM496.459 920.308C496.459 920.308 399.797 831.676 361.666 858.549C331.344 879.919 332.864 934.2 372.733 951.885C416.11 971.125 496.459 920.308 496.459 920.308ZM496.459 920.308C496.459 920.308 508.597 1004.01 548.53 1029.69C577.101 1048.06 622.791 994.55 611.151 973.057C588.045 930.385 496.459 920.308 496.459 920.308ZM496.459 920.308C496.459 920.308 595.823 908.612 623.511 877.445C649.985 847.647 640.622 796.963 601.965 787.27C563.707 777.68 496.459 920.308 496.459 920.308ZM496.459 920.308L472.326 850.477M496.459 920.308L411.944 916.678M496.459 920.308L554.67 977.488M496.459 920.308L543.75 891.999M496.459 920.308C496.459 920.308 522.423 1023.6 481.703 1047.03C444.866 1068.22 404.515 1055.3 412.928 1007.4C419.397 970.558 496.459 920.308 496.459 920.308ZM496.459 920.308L465.232 994.568" stroke="#6369A5" stroke-width="2"></path><path d="M934.62 459.428C934.62 459.428 999.017 357.471 982.715 326.955C963.377 290.755 909.644 299.378 902.54 339.805C894.309 386.654 934.62 459.428 934.62 459.428ZM934.62 459.428C934.62 459.428 848.982 445.696 818.314 463.903C791.863 479.607 790.036 512.878 825.987 516.817C865.105 521.103 934.62 459.428 934.62 459.428ZM934.62 459.428C934.62 459.428 971.315 529.522 1009.33 539.766C1036.53 547.093 1052.09 498.094 1041.78 480.261C1021.64 445.423 934.62 459.428 934.62 459.428ZM934.62 459.428C934.62 459.428 1037.15 446.103 1051.19 414.504C1064.62 384.295 1047.87 361.348 1014.88 363.42C982.237 365.47 934.62 459.428 934.62 459.428ZM934.62 459.428L939.424 395.128M934.62 459.428L869.069 478.167M934.62 459.428L996.628 498.368M934.62 459.428L979.097 426.818M934.62 459.428C934.62 459.428 961.173 537.207 934.889 565.967C911.107 591.986 874.033 591.181 861.754 554.48C851.034 522.441 934.62 459.428 934.62 459.428ZM934.62 459.428L919.778 539.786M934.62 459.428C934.62 459.428 905.015 383.163 861.754 372.048C832.554 364.545 817.854 375.383 822.565 402.229C831.625 453.866 934.62 459.428 934.62 459.428ZM934.62 459.428L869.069 404.987" stroke="#6369A5" stroke-width="2"></path><path d="M123.882 582.411C123.882 582.411 210.058 657.807 248.993 657.591C295.177 657.336 325.668 612.861 286.444 600.856C235.26 585.19 123.882 582.411 123.882 582.411ZM123.882 582.411C123.882 582.411 242.409 488.142 240.389 448.031C238.646 413.435 189.536 376.181 166.737 409.925C141.931 446.641 123.882 582.411 123.882 582.411ZM123.882 582.411C123.882 582.411 78.6027 602.263 55.7735 640.265C36.9141 671.657 78.4996 710.172 101.664 709.265C146.917 707.493 123.882 582.411 123.882 582.411ZM123.882 582.411C123.882 582.411 132.171 668.762 156.25 699.341C179.272 728.577 202.018 728.383 217.275 694.437C232.375 660.844 123.882 582.411 123.882 582.411ZM123.882 582.411L220.155 616.696M123.882 582.411L177.158 486.715M123.882 582.411L100.932 641.201M123.882 582.411L165.067 653.159M123.882 582.411C123.882 582.411 40.1643 501.291 25.3397 460.007C11.9278 422.654 29.8621 390.575 75.1741 393.185C113.128 395.373 123.882 582.411 123.882 582.411ZM123.882 582.411L86.4833 496.725M123.882 582.411C123.882 582.411 310.917 597.748 313.735 540.618C315.408 506.709 313.737 496.725 276.073 496.725C219.998 496.725 123.882 582.411 123.882 582.411ZM123.882 582.411L192.982 557.731M123.882 582.411L70.1934 574.282M123.882 582.411C123.882 582.411 42.7787 485.452 4.8214 521.317C-26.2996 550.721 -19.7267 585.637 17.1947 607.31C52.336 627.938 123.882 582.411 123.882 582.411Z" stroke="#6369A5" stroke-width="2"></path><path d="M888.514 793.03C888.514 793.03 899.108 696.742 879.512 672.237C856.266 643.168 816.453 659.774 816.821 696.998C817.248 740.137 888.514 793.03 888.514 793.03ZM888.514 793.03C888.514 793.03 817.379 813.754 793.053 835.075C772.071 853.467 796.428 884.71 829.139 882.256C864.728 879.588 888.514 793.03 888.514 793.03ZM888.514 793.03C888.514 793.03 957.278 822.27 986.271 801.42C1019.1 777.82 1025.39 734.479 1001.52 722.468C968.929 706.066 888.514 793.03 888.514 793.03ZM888.514 793.03C888.514 793.03 965.494 717.045 972.774 686.54C979.734 657.376 938.29 641.041 918.367 664.496C902.73 682.908 888.514 793.03 888.514 793.03ZM888.514 793.03L870.214 727.176M888.514 793.03L844.317 831.65M888.514 793.03L937.496 781.406M888.514 793.03L929.416 710.839M888.514 793.03C888.514 793.03 972.158 817.849 953.489 847.854C936.598 875 902.781 903.804 881.785 873.855C864.197 848.767 888.514 793.03 888.514 793.03ZM888.514 793.03L905.676 828.566M888.514 793.03C888.514 793.03 815.617 717.452 775.157 740.474C751.389 753.997 742.615 774.919 766.564 790.42C819.417 824.634 888.514 793.03 888.514 793.03ZM888.514 793.03L815.697 775.53" stroke="#6369A5" stroke-width="2"></path><path d="M296.745 658.499C298.968 746.31 329.558 745.199 337.856 775.21C346.156 805.222 255.821 843.554 288.968 858.575C319.236 872.29 328.967 811.889 353.412 795.218C376.903 779.194 386.331 813.349 414.522 809.668C439.351 806.424 482.504 785.229 487.855 760.76C487.855 760.76 433.849 814.654 368.294 736.306C302.739 657.956 337.856 606.058 337.856 606.058C312.741 619.359 296.188 636.483 296.745 658.499Z" fill="#12163B"></path><path d="M487.855 760.76C495.633 725.191 500.077 731.86 516.744 691.845C522.25 678.622 515.235 679.473 522.299 658.499C529.364 637.522 564.521 616.26 564.521 616.26V560.683C564.521 560.683 412.929 566.299 337.856 606.058C337.856 606.058 302.738 657.956 368.293 736.306C433.849 814.654 487.855 760.76 487.855 760.76Z" fill="#12163B"></path><path d="M487.855 760.76C495.633 725.191 500.077 731.86 516.744 691.845C522.25 678.622 515.235 679.473 522.299 658.499C529.364 637.522 564.521 616.26 564.521 616.26V560.683C564.521 560.683 412.929 566.299 337.856 606.058C337.856 606.058 302.738 657.956 368.293 736.306C433.849 814.654 487.855 760.76 487.855 760.76Z" fill="#6C1541"></path><path d="M313.416 413.973C343.002 452.586 375.453 482.524 398.04 502.759C464.622 562.406 545.423 560.703 561.75 559.678C545.075 547.071 404.118 441.733 313.416 413.973Z" fill="#6369A5"></path><path fill-rule="evenodd" clip-rule="evenodd" d="M275.819 215.982C432.485 309.351 564.706 559.447 564.706 559.447C564.706 559.447 563.677 559.558 561.751 559.678C545.075 547.071 404.118 441.733 313.417 413.973C290.544 384.124 269.384 349.091 255.819 309.351C243.482 273.201 212.2 178.065 275.819 215.982Z" fill="#6C1541"></path><path d="M333.381 575.366C386.714 602.043 399.403 605.378 446.713 605.378C490.046 605.378 563.379 560.916 563.379 560.916C563.379 560.916 562.819 560.487 561.75 559.678C545.424 560.703 464.622 562.406 398.04 502.758C375.454 482.524 343.003 452.586 313.416 413.973C283.797 404.907 259.537 404.116 246.715 417.528C225.355 439.865 255.668 476.897 275.588 501.231C278.463 504.746 281.126 507.994 283.381 510.897C292.101 522.113 297.252 531.932 301.792 540.586C309.399 555.087 315.29 566.316 333.381 575.366Z" fill="#12163B"></path><path d="M720.616 591.215C688.663 545.337 578.164 560.965 578.164 560.965L559.729 621.273C559.729 621.273 585.744 646.04 588.344 669.392C590.799 691.444 580.94 688.984 578.613 711.05C577.126 725.135 577.424 742.328 580.766 758.15C580.766 758.15 609.482 780.127 665.23 746.69C720.981 713.255 734.821 620.751 734.821 620.751C732.23 611.109 727.647 601.31 720.616 591.215Z" fill="#6C1541"></path><path d="M676.469 843.314C700.545 837.765 669.745 791.845 688.26 757.828C716.136 706.615 746.822 665.397 734.82 620.75C734.82 620.75 720.98 713.255 665.23 746.69C609.481 780.127 580.766 758.15 580.766 758.15C585.088 778.616 594.501 796.787 611.739 802.974C633.639 810.835 633.05 778.262 654.401 787.508C672.914 795.527 656.812 847.845 676.469 843.314Z" fill="#6C1541"></path><path d="M676.469 843.314C700.545 837.765 669.745 791.845 688.26 757.828C716.136 706.615 746.822 665.397 734.82 620.75C734.82 620.75 720.98 713.255 665.23 746.69C609.481 780.127 580.766 758.15 580.766 758.15C585.088 778.616 594.501 796.787 611.739 802.974C633.639 810.835 633.05 778.262 654.401 787.508C672.914 795.527 656.812 847.845 676.469 843.314Z" fill="#12163B"></path><path d="M779.174 361.377C768.54 359.003 754.967 363.309 740.776 374.651C706.183 402.302 595.937 538.49 580.948 557.077C594.199 552.729 681.33 522.677 711.507 475.066C714.35 470.584 717.292 465.975 720.31 461.247C739.103 431.809 760.836 397.762 779.174 361.377Z" fill="#6369A5"></path><path fill-rule="evenodd" clip-rule="evenodd" d="M819.057 185.53C676.907 256.628 579.25 557.624 579.25 557.624C579.25 557.624 579.841 557.442 580.948 557.077C595.937 538.49 706.183 402.302 740.776 374.651C754.967 363.309 768.54 359.003 779.173 361.377C782.529 354.719 785.771 347.983 788.86 341.183C828.657 253.565 855.139 167.482 819.057 185.53Z" fill="#6C1541"></path><path d="M579.255 559.18C579.255 559.18 712.97 598.22 741.292 547.743C747.989 535.802 753.958 525.95 759.34 517.066C776.716 488.389 787.971 469.813 797.867 423.779C805.876 386.525 796.369 365.217 779.174 361.377C760.836 397.763 739.103 431.809 720.309 461.247C717.292 465.975 714.35 470.584 711.507 475.066C681.33 522.677 594.199 552.729 580.948 557.077C579.842 558.449 579.255 559.18 579.255 559.18Z" fill="#12163B"></path><path d="M555.957 537.025L553.633 668.164L592.617 537.674L579.621 518.544L555.957 537.025Z" fill="#12163B" stroke="#12163B"></path></g><rect x="10" y="10" width="1020" height="1020" rx="510" stroke="#6369A5" stroke-width="20"></rect><defs><filter id="filter0_d_2296_1626" x="213.646" y="-16.9985" width="315.786" height="250.225" filterUnits="userSpaceOnUse" color-interpolation-filters="sRGB"></filter><clipPath id="clip0_2296_1626"><rect x="20" y="20" width="1000" height="1000" rx="500" fill="white"></rect></clipPath></defs></svg>